# xmcd
#
# Track frame offsets: 
#        150
#        12873
#        32680
#        47337
#        58721
#        70978
#        86205
#        106498
#        124445
#        146292
#
# Disc length: 2215 seconds
#
# Revision: 0
# Processed by: cddbd v1.5.1PL0 Copyright (c) Steve Scherf et al.
# Submitted via: ExactAudioCopy v0.95a3
#
DISCID=8708a50a
DTITLE=Various Artist - Voices at Borders
DYEAR=2003
DGENRE=Blues
TTITLE0=Erin McKeown - Slung-Lo
TTITLE1=Tim Easton - Hummingbird
TTITLE2=Oh Susanna - Right by your side
TTITLE3=Scott Miller and the Commonwealth - Second Chance
TTITLE4=The be good Tanyas - It's not happening
TTITLE5=Ron Sexsmith - These Days
TTITLE6=RAmsay Midwood - Spinnin' on this rock
TTITLE7=Patty Larkin - Children
TTITLE8=Martina Sorbara - This Ship
TTITLE9=Vusi Mahlasela - Red Song
EXTD=
EXTT0=
EXTT1=
EXTT2=
EXTT3=
EXTT4=
EXTT5=
EXTT6=
EXTT7=
EXTT8=
EXTT9=
PLAYORDER=
